<?xml version="1.0" encoding="utf-8"?><svg viewbox="0 0 36 36" xmlns="http://www.w3.org/2000/svg" xmlns:xlink="http://www.w3.org/1999/xlink"><style>:root>svg{display:none}:root>svg:target{display:block}</style><svg viewbox="0 0 35 36" id="fb" xmlns="http://www.w3.org/2000/svg"><path fill-rule="evenodd" clip-rule="evenodd" d="M0 18.408C0 8.79 7.796.995 17.413.995c9.616 0 17.412 7.796 17.412 17.413 0 9.616-7.796 17.413-17.412 17.413C7.796 35.82 0 28.025 0 18.408zM17.413 9.7c4.788 0 8.706 3.918 8.706 8.707a8.784 8.784 0 01-7.51 8.706v-6.203h2.069l.435-2.503h-2.394v-1.633c0-.653.326-1.306 1.415-1.306h1.088v-2.176s-.98-.218-1.96-.218c-1.958 0-3.264 1.197-3.264 3.374v1.959h-2.177v2.503h2.177v6.094c-4.136-.653-7.292-4.244-7.292-8.597 0-4.789 3.918-8.707 8.707-8.707z"/></svg><svg viewbox="0 0 36 36" id="in" xmlns="http://www.w3.org/2000/svg"><path fill-rule="evenodd" clip-rule="evenodd" d="M.57 18.408C.57 8.79 8.366.995 17.983.995c9.616 0 17.412 7.796 17.412 17.413 0 9.616-7.796 17.413-17.413 17.413C8.367 35.82.57 28.025.57 18.408zm8.924-2.939v11.645h3.7V15.47h-3.7zm-.218-3.7c0 1.197.87 2.068 2.068 2.068 1.197 0 2.068-.87 2.068-2.068 0-1.197-.87-2.068-2.068-2.068-1.088 0-2.068.871-2.068 2.068zM22.99 27.114h3.482v-7.183c0-3.591-2.176-4.788-4.244-4.788-1.85 0-3.156 1.197-3.483 1.959v-1.633h-3.482v11.645h3.7v-6.203c0-1.633 1.088-2.503 2.177-2.503 1.088 0 1.85.544 1.85 2.394v6.312z"/></svg><svg viewbox="0 0 35 36" id="inst" xmlns="http://www.w3.org/2000/svg"><path d="M17.552 21.455a3.042 3.042 0 01-3.047-3.047 3.042 3.042 0 013.047-3.048 3.042 3.042 0 013.048 3.048c0 1.632-1.415 3.047-3.048 3.047z"/><path fill-rule="evenodd" clip-rule="evenodd" d="M21.253 11.007h-7.4c-.871.11-1.307.218-1.633.327-.436.109-.762.326-1.089.653-.258.258-.38.517-.528.829-.038.082-.08.168-.125.26-.016.05-.036.103-.057.16a3.84 3.84 0 00-.27 1.471v7.4c.11.872.219 1.307.327 1.633.11.436.327.762.653 1.089.259.258.517.38.83.528.082.038.168.08.259.125l.16.057c.311.114.736.27 1.472.27h7.4c.871-.11 1.306-.219 1.633-.327.435-.11.762-.327 1.088-.653.259-.259.38-.517.528-.83l.125-.259a5.74 5.74 0 01.057-.16c.114-.311.27-.736.27-1.472v-7.4c-.11-.871-.218-1.306-.327-1.633-.109-.435-.326-.762-.653-1.088-.258-.259-.516-.38-.829-.528l-.259-.125-.16-.057a3.84 3.84 0 00-1.473-.27zm-3.7 2.721a4.645 4.645 0 00-4.68 4.68 4.645 4.645 0 004.68 4.68 4.645 4.645 0 004.679-4.68 4.645 4.645 0 00-4.68-4.68zm5.876-.109a1.088 1.088 0 11-2.176 0 1.088 1.088 0 012.176 0z"/><path fill-rule="evenodd" clip-rule="evenodd" d="M.14 18.408C.14 8.79 7.936.995 17.552.995c9.617 0 17.413 7.796 17.413 17.413 0 9.616-7.796 17.413-17.413 17.413C7.936 35.82.14 28.025.14 18.408zm13.712-9.033h7.4c.98.109 1.633.218 2.177.435.653.327 1.088.544 1.633 1.088.544.545.87 1.089 1.088 1.633.218.544.435 1.197.435 2.176v7.4c-.109.98-.218 1.633-.435 2.178-.327.652-.544 1.088-1.088 1.632a4.753 4.753 0 01-1.633 1.088 5.462 5.462 0 01-2.176.436h-7.4c-.98-.11-1.633-.218-2.178-.436-.652-.326-1.088-.544-1.632-1.088a4.752 4.752 0 01-1.088-1.633 5.461 5.461 0 01-.436-2.176v-7.4c.11-.98.218-1.633.436-2.177.326-.653.544-1.088 1.088-1.633a4.752 4.752 0 011.633-1.088 5.462 5.462 0 012.176-.435z"/></svg><svg viewbox="0 0 29 30" id="location" xmlns="http://www.w3.org/2000/svg"><path d="M15.635 26.913c3.077-2.708 8.552-8.241 8.552-13.32a10.594 10.594 0 10-21.187 0c0 5.079 5.473 10.612 8.553 13.32a3.065 3.065 0 004.082 0zm-5.572-13.32a3.531 3.531 0 117.062 0 3.531 3.531 0 01-7.063 0z"/></svg><svg viewbox="0 0 29 29" id="mail" xmlns="http://www.w3.org/2000/svg"><path d="M6.531 5A3.531 3.531 0 003 8.531v.355l10.594 5.705 10.593-5.703V8.53A3.531 3.531 0 0020.657 5H6.53zm17.656 5.892L14.012 16.37a.883.883 0 01-.837 0L3 10.89v8.234a3.531 3.531 0 003.531 3.531h14.125a3.531 3.531 0 003.531-3.531v-8.233z"/></svg><svg viewbox="0 0 29 29" id="tel" xmlns="http://www.w3.org/2000/svg"><path d="M11.923 12.934l1.896-1.737a3.532 3.532 0 00.918-3.842l-.808-2.16a3.383 3.383 0 00-4.157-2.047c-3.03.927-5.358 3.743-4.641 7.087.471 2.2 1.373 4.961 3.082 7.9a28.112 28.112 0 005.347 6.648c2.532 2.305 6.151 1.729 8.48-.443a3.353 3.353 0 00.302-4.583l-1.483-1.801a3.53 3.53 0 00-3.791-1.127l-2.45.772a11.705 11.705 0 01-1.653-2.16 11.066 11.066 0 01-1.042-2.508v.001z"/></svg><svg viewbox="0 0 36 36" id="twitter" xmlns="http://www.w3.org/2000/svg"><path fill-rule="evenodd" clip-rule="evenodd" d="M.285 18.408C.285 8.79 8.08.995 17.698.995c9.616 0 17.412 7.796 17.412 17.413 0 9.616-7.796 17.413-17.412 17.413C8.08 35.82.285 28.025.285 18.408zm24.051-4.898c.762-.108 1.415-.217 2.068-.544a5.03 5.03 0 01-1.85 1.85c.218 5.115-3.483 10.666-10.121 10.666-1.96 0-3.81-.653-5.442-1.633 1.85.218 3.81-.326 5.115-1.306-1.632 0-2.938-1.088-3.373-2.503.544.109 1.088 0 1.632-.109-1.632-.435-2.83-1.959-2.83-3.591.545.218 1.089.435 1.633.435-1.524-1.088-2.068-3.156-1.088-4.788 1.85 2.176 4.462 3.591 7.4 3.7-.544-2.177 1.197-4.353 3.482-4.353a3.8 3.8 0 012.613 1.088c.87-.218 1.632-.435 2.285-.87-.218.87-.762 1.523-1.524 1.958z"/></svg><svg viewbox="0 0 36 36" id="vk" xmlns="http://www.w3.org/2000/svg"><path fill-rule="evenodd" clip-rule="evenodd" d="M35.25 18.408C35.25 8.79 27.454.995 17.837.995S.424 8.791.424 18.408c0 9.616 7.796 17.413 17.413 17.413S35.25 28.025 35.25 18.408zm-24.9-7.488c-1.22 1.23-1.22 3.198-1.22 7.14v.696c0 3.935 0 5.903 1.22 7.14 1.23 1.218 3.198 1.218 7.139 1.218h.697c3.935 0 5.902 0 7.139-1.219 1.219-1.23 1.219-3.198 1.219-7.139v-.697c0-3.935 0-5.902-1.22-7.139-1.23-1.219-3.197-1.219-7.139-1.219h-.696c-3.935 0-5.903 0-7.14 1.22z"/><path d="M18.394 22.244c-3.97 0-6.233-2.716-6.326-7.243h1.997c.063 3.32 1.526 4.724 2.687 5.014v-5.014h1.875v2.861c1.143-.122 2.35-1.428 2.757-2.867h1.869a5.532 5.532 0 01-2.543 3.616 5.73 5.73 0 012.978 3.633h-2.06c-.442-1.375-1.544-2.443-3.001-2.588v2.588h-.233z"/></svg><svg viewbox="0 0 36 36" id="yt" xmlns="http://www.w3.org/2000/svg"><path d="M21.097 18.408l-4.57-2.612v5.224l4.57-2.612z"/><path fill-rule="evenodd" clip-rule="evenodd" d="M.855 18.408C.855 8.79 8.65.995 18.267.995c9.617 0 17.413 7.796 17.413 17.413 0 9.616-7.796 17.413-17.413 17.413C8.651 35.82.855 28.025.855 18.408zm24.16-5.768a2.155 2.155 0 011.523 1.523c.436 1.415.436 4.245.436 4.245s0 2.83-.327 4.244a2.155 2.155 0 01-1.523 1.524c-1.415.326-6.857.326-6.857.326s-5.55 0-6.856-.326a2.155 2.155 0 01-1.523-1.524c-.327-1.415-.327-4.244-.327-4.244s0-2.83.218-4.245a2.155 2.155 0 011.523-1.523c1.415-.327 6.857-.327 6.857-.327s5.55 0 6.856.327z"/></svg></svg>