<svg width="35" height="36" viewBox="0 0 35 36" fill="none" xmlns="http://www.w3.org/2000/svg">
<path fill-rule="evenodd" clip-rule="evenodd" d="M0 18.4077C0 8.79095 7.79595 0.994995 17.4127 0.994995C27.0295 0.994995 34.8255 8.79095 34.8255 18.4077C34.8255 28.0245 27.0295 35.8205 17.4127 35.8205C7.79595 35.8205 0 28.0245 0 18.4077ZM17.4127 9.70137C22.2013 9.70137 26.1191 13.6192 26.1191 18.4077C26.1191 22.7609 22.9631 26.4611 18.6099 27.1141V20.9108H20.6776L21.113 18.4077H18.7187V16.7753C18.7187 16.1223 19.0452 15.4693 20.1335 15.4693H21.2218V13.2927C21.2218 13.2927 20.2423 13.0751 19.2629 13.0751C17.3039 13.0751 15.998 14.2722 15.998 16.4488V18.4077H13.8214V20.9108H15.998V27.0053C11.8624 26.3523 8.70637 22.7609 8.70637 18.4077C8.70637 13.6192 12.6242 9.70137 17.4127 9.70137Z" fill="#2F6D5F"/>
</svg>
