<svg width="29" height="29" viewBox="0 0 29 29" fill="none" xmlns="http://www.w3.org/2000/svg">
<path d="M6.53123 5C5.59469 5 4.69651 5.37204 4.03427 6.03427C3.37204 6.69651 3 7.59469 3 8.53123V8.88612L13.5937 14.5908L24.1874 8.88788V8.53123C24.1874 7.59469 23.8153 6.69651 23.1531 6.03427C22.4909 5.37204 21.5927 5 20.6561 5H6.53123ZM24.1874 10.8919L14.0121 16.3706C13.8835 16.4398 13.7397 16.476 13.5937 16.476C13.4476 16.476 13.3038 16.4398 13.1752 16.3706L3 10.8919V19.1249C3 20.0615 3.37204 20.9596 4.03427 21.6219C4.69651 22.2841 5.59469 22.6561 6.53123 22.6561H20.6561C21.5927 22.6561 22.4909 22.2841 23.1531 21.6219C23.8153 20.9596 24.1874 20.0615 24.1874 19.1249V10.8919Z" fill="#2F6D5F"/>
</svg>
