<svg width="36" height="36" viewBox="0 0 36 36" fill="none" xmlns="http://www.w3.org/2000/svg">
<path fill-rule="evenodd" clip-rule="evenodd" d="M35.25 18.4077C35.25 8.79095 27.454 0.994995 17.8372 0.994995C8.22042 0.994995 0.424469 8.79095 0.424469 18.4077C0.424469 28.0245 8.22042 35.8205 17.8372 35.8205C27.454 35.8205 35.25 28.0245 35.25 18.4077ZM10.3497 10.9203C9.13084 12.1508 9.13084 14.1184 9.13084 18.0595V18.756C9.13084 22.6913 9.13084 24.6589 10.3497 25.8952C11.5802 27.1141 13.5479 27.1141 17.489 27.1141H18.1855C22.1208 27.1141 24.0884 27.1141 25.3247 25.8952C26.5436 24.6647 26.5436 22.6971 26.5436 18.756V18.0595C26.5436 14.1242 26.5436 12.1566 25.3247 10.9203C24.0942 9.70137 22.1266 9.70137 18.1855 9.70137H17.489C13.5537 9.70137 11.586 9.70137 10.3497 10.9203Z" fill="#2F6D5F"/>
<path d="M18.3944 22.2444C14.4243 22.2444 12.1607 19.528 12.0678 15.0007H14.0645C14.1283 18.3207 15.591 19.7253 16.7518 20.0155V15.0007H18.6266V17.8622C19.77 17.7403 20.9773 16.4343 21.3836 14.9949H23.2526C23.1002 15.74 22.7958 16.4457 22.3584 17.0679C21.9209 17.69 21.3599 18.2153 20.7103 18.6109C21.4352 18.9717 22.0754 19.4821 22.5887 20.1084C23.1019 20.7347 23.4766 21.4627 23.6879 22.2444H21.6274C21.1863 20.8688 20.0835 19.8008 18.6266 19.6557V22.2444H18.3944Z" fill="#2F6D5F"/>
</svg>
