<svg width="36" height="36" viewBox="0 0 36 36" fill="none" xmlns="http://www.w3.org/2000/svg">
<path fill-rule="evenodd" clip-rule="evenodd" d="M0.569794 18.4077C0.569794 8.79095 8.36575 0.994995 17.9825 0.994995C27.5993 0.994995 35.3953 8.79095 35.3953 18.4077C35.3953 28.0245 27.5993 35.8205 17.9825 35.8205C8.36575 35.8205 0.569794 28.0245 0.569794 18.4077ZM9.49382 15.4693V27.1141H13.194V15.4693H9.49382ZM9.27617 11.7691C9.27617 12.9663 10.1468 13.8369 11.3439 13.8369C12.5411 13.8369 13.4117 12.9663 13.4117 11.7691C13.4117 10.572 12.5411 9.70137 11.3439 9.70137C10.2556 9.70137 9.27617 10.572 9.27617 11.7691ZM22.9887 27.1141H26.4713V19.9314C26.4713 16.34 24.2947 15.1429 22.2269 15.1429C20.3768 15.1429 19.0708 16.34 18.7443 17.1018V15.4693H15.2618V27.1141H18.962V20.9108C18.962 19.2784 20.0503 18.4077 21.1386 18.4077C22.2269 18.4077 22.9887 18.9519 22.9887 20.802V27.1141Z" fill="#2F6D5F"/>
</svg>
