<svg width="35" height="36" viewBox="0 0 35 36" fill="none" xmlns="http://www.w3.org/2000/svg">
<path d="M17.5523 21.455C15.9199 21.455 14.5051 20.149 14.5051 18.4077C14.5051 16.7753 15.8111 15.3605 17.5523 15.3605C19.1848 15.3605 20.5996 16.6665 20.5996 18.4077C20.5996 20.0402 19.1848 21.455 17.5523 21.455Z" fill="#2F6D5F"/>
<path fill-rule="evenodd" clip-rule="evenodd" d="M21.2525 11.0073H13.8521C12.9815 11.1162 12.5462 11.225 12.2197 11.3338C11.7844 11.4426 11.4579 11.6603 11.1314 11.9868C10.873 12.2451 10.751 12.5035 10.6034 12.8158C10.5646 12.898 10.5238 12.9843 10.4784 13.0751C10.4616 13.1256 10.4421 13.1787 10.4213 13.2356C10.3074 13.5467 10.1519 13.9716 10.1519 14.7075V22.1079C10.2607 22.9786 10.3696 23.4139 10.4784 23.7404C10.5872 24.1757 10.8049 24.5022 11.1314 24.8287C11.3897 25.087 11.6481 25.2091 11.9603 25.3566C12.0427 25.3955 12.1288 25.4362 12.2197 25.4817C12.2702 25.4985 12.3233 25.5179 12.3802 25.5388C12.6913 25.6526 13.1162 25.8082 13.8521 25.8082H21.2525C22.1232 25.6993 22.5585 25.5905 22.885 25.4817C23.3203 25.3728 23.6468 25.1552 23.9733 24.8287C24.2316 24.5703 24.3537 24.312 24.5012 23.9997C24.5401 23.9174 24.5808 23.8312 24.6263 23.7404C24.6431 23.6899 24.6625 23.6368 24.6834 23.5798C24.7972 23.2688 24.9528 22.8439 24.9528 22.1079V14.7075C24.8439 13.8369 24.7351 13.4016 24.6263 13.0751C24.5174 12.6398 24.2998 12.3133 23.9733 11.9868C23.7149 11.7284 23.4566 11.6064 23.1443 11.4588C23.0621 11.42 22.9757 11.3792 22.885 11.3338C22.8345 11.317 22.7814 11.2975 22.7244 11.2767C22.4134 11.1628 21.9885 11.0073 21.2525 11.0073ZM17.5523 13.7281C14.9404 13.7281 12.8727 15.7958 12.8727 18.4077C12.8727 21.0197 14.9404 23.0874 17.5523 23.0874C20.1642 23.0874 22.232 21.0197 22.232 18.4077C22.232 15.7958 20.1642 13.7281 17.5523 13.7281ZM23.4291 13.6192C23.4291 14.2203 22.9419 14.7075 22.3408 14.7075C21.7398 14.7075 21.2525 14.2203 21.2525 13.6192C21.2525 13.0182 21.7398 12.5309 22.3408 12.5309C22.9419 12.5309 23.4291 13.0182 23.4291 13.6192Z" fill="#2F6D5F"/>
<path fill-rule="evenodd" clip-rule="evenodd" d="M0.139587 18.4077C0.139587 8.79095 7.93554 0.994995 17.5523 0.994995C27.1691 0.994995 34.9651 8.79095 34.9651 18.4077C34.9651 28.0245 27.1691 35.8205 17.5523 35.8205C7.93554 35.8205 0.139587 28.0245 0.139587 18.4077ZM13.8521 9.37488H21.2525C22.232 9.48371 22.885 9.59254 23.4291 9.81019C24.0821 10.1367 24.5174 10.3543 25.0616 10.8985C25.6057 11.4426 25.9322 11.9868 26.1499 12.5309C26.3675 13.0751 26.5852 13.7281 26.5852 14.7075V22.1079C26.4764 23.0874 26.3675 23.7404 26.1499 24.2845C25.8234 24.9375 25.6057 25.3728 25.0616 25.917C24.5174 26.4611 23.9733 26.7876 23.4291 27.0053C22.885 27.2229 22.232 27.4406 21.2525 27.4406H13.8521C12.8727 27.3318 12.2197 27.2229 11.6755 27.0053C11.0226 26.6788 10.5872 26.4611 10.0431 25.917C9.49894 25.3728 9.17245 24.8287 8.95479 24.2845C8.73713 23.7404 8.51947 23.0874 8.51947 22.1079V14.7075C8.6283 13.7281 8.73713 13.0751 8.95479 12.5309C9.28128 11.878 9.49894 11.4426 10.0431 10.8985C10.5872 10.3543 11.1314 10.0279 11.6755 9.81019C12.2197 9.59254 12.8727 9.37488 13.8521 9.37488Z" fill="#2F6D5F"/>
</svg>
