<svg width="29" height="30" viewBox="0 0 29 30" fill="none" xmlns="http://www.w3.org/2000/svg">
<path d="M15.6347 26.9135C18.7122 24.205 24.1874 18.6716 24.1874 13.5937C24.1874 10.7841 23.0713 8.08952 21.0846 6.10282C19.0978 4.11612 16.4033 3 13.5937 3C10.7841 3 8.08952 4.11612 6.10282 6.10282C4.11612 8.08952 3 10.7841 3 13.5937C3 18.6716 8.4734 24.205 11.5526 26.9135C12.1143 27.4148 12.8408 27.6919 13.5937 27.6919C14.3465 27.6919 15.0731 27.4148 15.6347 26.9135ZM10.0625 13.5937C10.0625 12.6571 10.4345 11.759 11.0967 11.0967C11.759 10.4345 12.6571 10.0625 13.5937 10.0625C14.5302 10.0625 15.4284 10.4345 16.0906 11.0967C16.7529 11.759 17.1249 12.6571 17.1249 13.5937C17.1249 14.5302 16.7529 15.4284 16.0906 16.0906C15.4284 16.7529 14.5302 17.1249 13.5937 17.1249C12.6571 17.1249 11.759 16.7529 11.0967 16.0906C10.4345 15.4284 10.0625 14.5302 10.0625 13.5937Z" fill="#2F6D5F"/>
</svg>
