<svg width="29" height="29" viewBox="0 0 29 29" fill="none" xmlns="http://www.w3.org/2000/svg">
<path d="M11.923 12.9344L13.8192 11.1971C14.3377 10.7211 14.7022 10.101 14.8658 9.41648C15.0293 8.73191 14.9846 8.01407 14.7374 7.3551L13.9287 5.19576C13.6266 4.38961 13.0285 3.72897 12.2563 3.34843C11.484 2.96789 10.5958 2.89609 9.77245 3.14764C6.74265 4.07459 4.41381 6.89074 5.13065 10.2348C5.60206 12.4348 6.50429 15.1962 8.21341 18.1342C9.92605 21.0792 11.8824 23.2545 13.5597 24.7835C16.0916 27.0876 19.7111 26.512 22.0399 24.3403C22.6642 23.7583 23.043 22.96 23.0991 22.1084C23.1552 21.2567 22.8844 20.4157 22.3419 19.7568L20.8587 17.9558C20.4114 17.4112 19.8114 17.0129 19.1358 16.8122C18.4603 16.6114 17.7401 16.6174 17.068 16.8294L14.6173 17.601C13.9844 16.9478 13.4298 16.2232 12.9647 15.4416C12.5157 14.6512 12.1659 13.8086 11.923 12.9327V12.9344Z" fill="#2F6D5F"/>
</svg>
