<svg width="36" height="36" viewBox="0 0 36 36" fill="none" xmlns="http://www.w3.org/2000/svg">
<path fill-rule="evenodd" clip-rule="evenodd" d="M0.284912 18.4077C0.284912 8.79095 8.08086 0.994995 17.6977 0.994995C27.3145 0.994995 35.1104 8.79095 35.1104 18.4077C35.1104 28.0245 27.3145 35.8205 17.6977 35.8205C8.08086 35.8205 0.284912 28.0245 0.284912 18.4077ZM24.3363 13.5104C25.0981 13.4016 25.7511 13.2927 26.404 12.9663C25.9687 13.7281 25.3157 14.381 24.5539 14.8164C24.7716 19.9314 21.0714 25.4817 14.4328 25.4817C12.4738 25.4817 10.6237 24.8287 8.99129 23.8492C10.8414 24.0669 12.8003 23.5227 14.1063 22.5433C12.4738 22.5433 11.1679 21.455 10.7326 20.0402C11.2767 20.149 11.8209 20.0402 12.365 19.9314C10.7326 19.496 9.53543 17.9724 9.53543 16.34C10.0796 16.5576 10.6237 16.7753 11.1679 16.7753C9.64426 15.687 9.10012 13.6192 10.0796 11.9868C11.9297 14.1634 14.5416 15.5782 17.48 15.687C16.9359 13.5104 18.6771 11.3338 20.9625 11.3338C21.942 11.3338 22.9215 11.7691 23.5745 12.4221C24.4451 12.2045 25.2069 11.9868 25.8599 11.5515C25.6422 12.4221 25.0981 13.0751 24.3363 13.5104Z" fill="#2F6D5F"/>
</svg>
