<svg width="36" height="36" viewBox="0 0 36 36" fill="none" xmlns="http://www.w3.org/2000/svg">
<path d="M21.097 18.4077L16.5261 15.7958V21.0197L21.097 18.4077Z" fill="#2F6D5F"/>
<path fill-rule="evenodd" clip-rule="evenodd" d="M0.854675 18.4077C0.854675 8.79095 8.65063 0.994995 18.2674 0.994995C27.8842 0.994995 35.6802 8.79095 35.6802 18.4077C35.6802 28.0245 27.8842 35.8205 18.2674 35.8205C8.65063 35.8205 0.854675 28.0245 0.854675 18.4077ZM25.0149 12.6398C25.7767 12.8574 26.3208 13.4016 26.5385 14.1634C26.9738 15.5782 26.9738 18.4077 26.9738 18.4077C26.9738 18.4077 26.9738 21.2373 26.6473 22.6521C26.4297 23.4139 25.8855 23.9581 25.1237 24.1757C23.7089 24.5022 18.2674 24.5022 18.2674 24.5022C18.2674 24.5022 12.7171 24.5022 11.4111 24.1757C10.6493 23.9581 10.1052 23.4139 9.88754 22.6521C9.56105 21.2373 9.56105 18.4077 9.56105 18.4077C9.56105 18.4077 9.56105 15.5782 9.7787 14.1634C9.99636 13.4016 10.5405 12.8574 11.3023 12.6398C12.7171 12.3133 18.1586 12.3133 18.1586 12.3133C18.1586 12.3133 23.7089 12.3133 25.0149 12.6398Z" fill="#2F6D5F"/>
</svg>
